<svg id="Layer_1" data-name="Layer 1" xmlns="http://www.w3.org/2000/svg" viewBox="0 0 500 500"><defs><style>.cls-1{fill:#212121;}</style></defs><title>icons</title><g id="Group_38" data-name="Group 38"><path id="Path_6" data-name="Path 6" class="cls-1" d="M276.35,225v-.48c-.1.16-.24.33-.33.48Z"/><path id="Path_7" data-name="Path 7" class="cls-1" d="M254.39,33c-119.84,0-217,97.15-217,217s97.15,217,217,217,217-97.15,217-217v0C471.24,130.21,374.17,33.15,254.39,33ZM200.12,347.55a3.63,3.63,0,0,1-3.62,3.63H154.68a3.63,3.63,0,0,1-3.62-3.63V207.19a3.62,3.62,0,0,1,3.62-3.62h41.81a3.63,3.63,0,0,1,3.63,3.62Zm-26-162.77a26.27,26.27,0,1,1,26.27-26.27h0A26.27,26.27,0,0,1,174.12,184.78Zm203,162.76a3.61,3.61,0,0,1-3.61,3.62H331.62a3.62,3.62,0,0,1-3.62-3.62V272.2c0-19.83-7.1-33.36-24.86-33.36A26.85,26.85,0,0,0,278,256.78a33.69,33.69,0,0,0-1.61,12v78.81a3.64,3.64,0,0,1-3.63,3.63H230.91a3.62,3.62,0,0,1-3.63-3.6v0c.1-20.06.52-117.43.09-140.31a3.62,3.62,0,0,1,3.54-3.68h41.81a3.65,3.65,0,0,1,3.63,3.63v17.29a48.71,48.71,0,0,1,44.23-24.38c32.28,0,56.49,21.1,56.49,66.43Z"/></g></svg>