<svg id="Layer_1" data-name="Layer 1" xmlns="http://www.w3.org/2000/svg" viewBox="0 0 500 500"><defs><style>.cls-1{fill:#212121;}</style></defs><title>icons</title><g id="Group_35" data-name="Group 35"><path id="Path_3" data-name="Path 3" class="cls-1" d="M231.79,214.52c-2.51-1.42-4.83.39-4.83,3.26v64.89c0,2.86,2.26,4.67,4.76,3.31l57.64-31.61a3.77,3.77,0,0,0,.47-6.58Z"/><path id="Path_4" data-name="Path 4" class="cls-1" d="M250.62,33c-119.84,0-217,97.16-217,217s97.16,217,217,217,217-97.15,217-217S370.42,33.13,250.62,33ZM380.56,284.84a55.73,55.73,0,0,1-55.73,55.73H180.29a55.73,55.73,0,0,1-55.73-55.73V217.09a55.73,55.73,0,0,1,55.73-55.72H324.83a55.73,55.73,0,0,1,55.73,55.72h0Z"/></g></svg>