<svg id="Layer_1" data-name="Layer 1" xmlns="http://www.w3.org/2000/svg" viewBox="0 0 500 500"><defs><style>.cls-1{fill:#212121;}</style></defs><title>icons</title><g id="Group_37" data-name="Group 37"><g id="Group_36" data-name="Group 36"><path id="Path_5" data-name="Path 5" class="cls-1" d="M250.42,467C130.51,467,33.31,369.8,33.31,249.89s97.2-217.1,217.11-217.1S467.53,130,467.53,249.89h0C467.39,369.74,370.27,466.86,250.42,467Zm73.2-305.2a16.07,16.07,0,1,0,16.07,16.07,16.07,16.07,0,0,0-16.07-16.07ZM252.2,182.4a67.49,67.49,0,1,0,67.48,67.5,67.49,67.49,0,0,0-67.48-67.5Zm0,110.73a43.24,43.24,0,1,1,43.23-43.24,43.24,43.24,0,0,1-43.23,43.24Zm136.16-99.32a82.32,82.32,0,0,0-82.31-82.32H197.41a82.32,82.32,0,0,0-82.31,82.32V302.45a82.32,82.32,0,0,0,82.31,82.32H306.05a82.32,82.32,0,0,0,82.31-82.32ZM362.59,302.45A56.54,56.54,0,0,1,306,359H197.41a56.53,56.53,0,0,1-56.53-56.53V193.81a56.52,56.52,0,0,1,56.53-56.53H306.05a56.52,56.52,0,0,1,56.54,56.53h0Z"/></g></g></svg>