<svg id="Layer_1" data-name="Layer 1" xmlns="http://www.w3.org/2000/svg" viewBox="0 0 919.32 691"><defs><style>.cls-1{fill:#ac854f;}</style></defs><title>shapes</title><rect class="cls-1" x="570.93" y="384.16" width="95.5" height="95.5" transform="translate(-204.16 384.98) rotate(-45)"/><rect class="cls-1" x="492.37" y="462.73" width="95.49" height="95.49" transform="translate(-282.72 352.44) rotate(-45)"/><polygon class="cls-1" points="392.75 174.46 460.28 106.95 527.8 174.46 460.27 242 392.75 174.46"/><polygon class="cls-1" points="314.18 253.03 381.72 185.5 449.24 253.03 381.71 320.55 314.18 253.03"/><polygon class="cls-1" points="264.77 459.34 332.29 391.81 399.82 459.34 332.29 526.87 264.77 459.34"/><polygon class="cls-1" points="186.21 537.9 253.73 470.37 321.26 537.9 253.73 605.42 186.21 537.9"/><polygon class="cls-1" points="186.32 380.9 253.85 313.37 321.38 380.9 253.85 448.42 186.32 380.9"/><rect class="cls-1" x="207.5" y="590.71" width="95.49" height="95.5" transform="translate(-456.67 188.51) rotate(-45)"/><polygon class="cls-1" points="677.8 459.53 745.32 391.99 812.85 459.52 745.32 527.05 677.8 459.53"/><rect class="cls-1" x="698.98" y="669.34" width="95.49" height="95.49" transform="translate(-368.3 559.04) rotate(-45)"/><polygon class="cls-1" points="599.35 381.07 666.87 313.55 734.41 381.07 666.87 448.6 599.35 381.07"/><polygon class="cls-1" points="520.8 459.64 588.32 392.11 655.85 459.64 588.32 527.16 520.8 459.64"/><rect class="cls-1" x="768.36" y="84.49" width="1.59" height="649.29" transform="translate(-143.98 484.71) rotate(-45)"/><rect class="cls-1" x="746.1" y="106.63" width="1.59" height="648.71" transform="translate(-165.95 475.37) rotate(-45)"/><rect class="cls-1" x="697.76" y="728.63" width="325.8" height="1.48" transform="translate(-343.63 643.2) rotate(-45)"/><polygon class="cls-1" points="690 689.36 688.96 688.32 917.42 458.76 918.46 459.8 690 689.36"/><rect class="cls-1" x="221.7" y="566.9" width="1.46" height="322.91" transform="translate(-529.84 191.61) rotate(-45)"/><rect class="cls-1" x="195.14" y="590.9" width="1.48" height="326.38" transform="translate(-555.81 180.37) rotate(-45)"/><rect class="cls-1" x="216.1" y="638.08" width="649.87" height="1.62" transform="translate(-373.29 391.04) rotate(-45.02)"/><rect class="cls-1" x="8.43" y="431.81" width="651.02" height="1.63" transform="translate(-288.06 183.84) rotate(-45)"/><rect class="cls-1" x="-13.95" y="408.73" width="650.44" height="1.63" transform="translate(-278.35 160.84) rotate(-44.98)"/><rect class="cls-1" x="539.82" y="313.15" width="1.6" height="649.87" transform="translate(-372.81 390.17) rotate(-45)"/></svg>