<?xml version="1.0" encoding="utf-8"?>
<!-- Generator: Adobe Illustrator 23.0.6, SVG Export Plug-In . SVG Version: 6.00 Build 0)  -->
<svg version="1.1" id="Layer_1" xmlns="http://www.w3.org/2000/svg" xmlns:xlink="http://www.w3.org/1999/xlink" x="0px" y="0px"
	 viewBox="0 0 2000 2000" style="enable-background:new 0 0 2000 2000;" xml:space="preserve">
<style type="text/css">
	.st0{fill:#42A9DF;}
	.st1{fill:#FBB216;}
</style>
<g>
	<path class="st0" d="M1109.7,777.1l700.7,700.7c91.8,91.8,91.8,240.8,0,332.6l0,0c-91.8,91.8-240.8,91.8-332.6,0l-700.7-700.7
		c-91.8-91.8-91.8-240.8,0-332.6l0,0C868.9,685.2,1017.8,685.2,1109.7,777.1z"/>
	<path class="st1" d="M840.7,1479.2L1479.9,840l0,0l317.8-317.8c91.8-91.8,91.8-240.8,0-332.6v0c-91.8-91.8-240.8-91.8-332.6,0
		L993.6,661L522.2,189.6c-91.8-91.8-240.8-91.8-332.6,0l0,0c-91.8,91.8-91.8,240.8,0,332.6L661,993.6l-471.4,471.4
		c-91.8,91.8-91.8,240.8,0,332.6l0,0c91.8,91.8,240.8,91.8,332.6,0L840.7,1479.2L840.7,1479.2z"/>
</g>
</svg>
