<?xml version="1.0" encoding="utf-8"?>
<!-- Generator: Adobe Illustrator 23.0.6, SVG Export Plug-In . SVG Version: 6.00 Build 0)  -->
<svg version="1.1" id="Layer_1" xmlns="http://www.w3.org/2000/svg" xmlns:xlink="http://www.w3.org/1999/xlink" x="0px" y="0px"
	 viewBox="0 0 2000 477" style="enable-background:new 0 0 2000 477;" xml:space="preserve">
<style type="text/css">
	.st0{fill:#FFE600;}
</style>
<g>
	<g>
		<path class="st0" d="M406.5,297.1H332l-30.9-29.9c-4.2,3.8-20.6,19-31.8,29.5l-0.4,0.4h-70.5l2.8-2.6c0,0,16.6-15.5,33.2-30.9
			c8.3-7.7,16.6-15.4,22.9-21.2c3.1-2.9,5.7-5.3,7.6-7c0.7-0.6,1.3-1.2,1.7-1.6l-66.3-64.3h74.5l29.7,28.8l31-28.8H406l-66.9,62.3
			c0.5,0.4,1,1,1.7,1.6c1.8,1.7,4.4,4.2,7.5,7.2c6.2,6,14.4,14,22.7,21.9c16.5,16,32.9,31.9,32.9,31.9L406.5,297.1z M333.2,294.1
			h65.9c-22.8-22.1-62-60.1-63.2-61.2l0.8-0.9l-0.9-1.3l62.5-58.2h-61.7l-32.2,29.9l-30.9-29.9h-65.9l62.1,60.3l-0.9,1.3l0.8,1
			c-1.2,1-40.7,37.7-63.7,59.1h61.7c1.8-1.7,8.9-8.3,16-14.9c4.1-3.8,8.2-7.6,11.3-10.5c5.9-5.4,5.9-5.4,6.8-5l0.2,0.1L333.2,294.1z
			"/>
	</g>
	<g>
		<path class="st0" d="M638.5,297.1h-69.6l-9.6-14.8h-82.2l-9.9,14.8h-68.4l87.3-127.6H557L638.5,297.1z M570.5,294.1h62.5
			l-77.7-121.6h-67.6l-83.2,121.6h61.1l9.9-14.8H561L570.5,294.1z M543.1,249.6h-48.8l17.2-26.3l7.7-11.5l7,11.4L543.1,249.6z
			 M499.9,246.6h37.7l-14-21.8l-4.5-7.4L514,225L499.9,246.6z"/>
	</g>
	<g>
		<path class="st0" d="M846.4,297.1h-62l-27.3-62.5L730,297.1h-62l-0.4-0.9l-56.8-126.7h69.4l25.3,60.6l25.3-60.6h62.3l25.3,60.6
			l25.3-60.6h59.8L846.4,297.1z M786.5,294.1h58L899,172.5h-53.2l-27.3,65.4l-27.3-65.4h-58.3l-27.3,65.4l-27.3-65.4h-62.7
			l54.5,121.6h58l29.2-67L786.5,294.1z"/>
	</g>
	<g>
		<path class="st0" d="M1123.8,297.1h-63.5v-42.1l-84.8-85.6h75.4l41.8,42.3l41.8-42.3h74l-84.8,85.6V297.1z M1063.3,294.1h57.5
			v-40.3l80.6-81.3h-65.5l-43.1,43.6l-43.1-43.6h-66.9l80.6,81.3V294.1z"/>
	</g>
	<g>
		<path class="st0" d="M1398.7,297.1h-69.6l-9.6-14.8h-82.2l-9.9,14.8h-68.4l87.3-127.6h70.9L1398.7,297.1z M1330.7,294.1h62.5
			l-77.7-121.6h-67.6l-83.2,121.6h61.1l9.9-14.8h85.4L1330.7,294.1z M1303.3,249.6h-48.8l17.2-26.3l7.7-11.5l7,11.4L1303.3,249.6z
			 M1260.1,246.6h37.7l-14-21.8l-4.5-7.4l-5.1,7.6L1260.1,246.6z"/>
	</g>
	<g>
		<path class="st0" d="M1590.7,297.1h-60.6l-0.4-0.4l-64.2-57.4v57.8h-60.9V169.5h64.1l61.1,54.3v-54.3h60.9V297.1z M1531.2,294.1
			h56.5V172.5h-54.9v58l-65.3-58h-60v121.6h54.9v-61.5L1531.2,294.1z"/>
	</g>
	<g>
		<path class="st0" d="M1692.6,299c-32.6,0-58.9-9-74-25.2c-10.1-10.8-15.2-24.4-15.2-40.4c0-14.3,5.2-27,15.6-37.9
			c17.6-18.1,48.3-28.1,86.5-28.1c48.4,0,79.4,12.9,92.3,38.3c1.8,3.7,3,8.3,3.2,10.8l0.1,1.6h-60.5l-0.3-1
			c-0.6-0.7-3.7-2.4-6.7-3.3c-1.8-0.6-11.5-3.3-28.1-3.3c-15.8,0-26.8,3.1-32.8,9.1c-3.6,3.5-5.5,8.2-5.5,14.1
			c0,5.6,1.7,10.1,5.3,13.8c5.9,5.9,17.1,9,33.1,9c19,0,31.7-1.8,38.8-5.6h-47.8v-30.9h105.8v77h-50.1l-1-10.3
			C1737.1,294.9,1717.4,299,1692.6,299z M1705.4,170.4c-37.3,0-67.3,9.6-84.3,27.2c-9.8,10.3-14.7,22.3-14.7,35.8
			c0,15.2,4.9,28.2,14.4,38.4c14.6,15.6,40.1,24.3,71.8,24.3c25.4,0,45.3-4.4,59-13l2.1-1.3l1.2,12.4h44.4v-71h-99.8V248h50.3v1.5
			c0,1.1-0.8,2.2-2.2,3c-7.1,4.7-20.9,7.1-42.1,7.1c-17.1,0-28.6-3.2-35.2-9.9c-4.1-4.3-6.2-9.6-6.2-15.9c0-6.7,2.1-12.2,6.4-16.2
			c6.5-6.6,18.2-10,34.9-10c13.2,0,23.6,1.8,29,3.4c0.1,0,5.9,1.9,8,4.1h55.3c-0.4-2.3-1.4-5.5-2.7-8
			C1782.7,182.7,1752.5,170.4,1705.4,170.4z"/>
	</g>
</g>
</svg>
